<svg width="24" height="24" viewBox="0 0 24 24" fill="none" xmlns="http://www.w3.org/2000/svg">
<rect width="24" height="24" rx="8" fill="#EDFFF5"/>
<path fill-rule="evenodd" clip-rule="evenodd" d="M11.8189 18.6091C11.8927 18.6477 11.9753 18.6673 12.0578 18.6666C12.1404 18.666 12.2223 18.6457 12.2968 18.6065L14.6753 17.335C15.3499 16.9754 15.8781 16.5734 16.2902 16.1053C17.1861 15.0855 17.6754 13.7839 17.6667 12.4418L17.6385 8.01466C17.6358 7.50474 17.3009 7.04974 16.8056 6.88435L12.3807 5.39971C12.1142 5.3095 11.8222 5.31146 11.5605 5.40429L7.15233 6.94188C6.6597 7.11381 6.33083 7.57208 6.33351 8.08265L6.3617 12.5065C6.37043 13.8506 6.87648 15.1463 7.78724 16.1556C8.20336 16.6172 8.73626 17.0133 9.41816 17.367L11.8189 18.6091ZM11.1892 13.406C11.2885 13.5014 11.4174 13.5485 11.5463 13.5472C11.6751 13.5465 11.8033 13.4981 11.9013 13.4014L14.5007 10.8387C14.696 10.6459 14.694 10.336 14.4967 10.1458C14.2987 9.95554 13.9799 9.95684 13.7846 10.1497L11.5389 12.3632L10.6194 11.4794C10.4214 11.2892 10.1033 11.2911 9.90729 11.484C9.71198 11.6768 9.714 11.9867 9.91199 12.1769L11.1892 13.406Z" fill="#27AE60"/>
</svg>
