<svg width="46" height="34" viewBox="0 0 46 34" fill="none" xmlns="http://www.w3.org/2000/svg">
<path d="M17.7688 24.2741C17.7688 29.1808 13.7911 33.1585 8.8844 33.1585C3.97768 33.1585 0 29.1808 0 24.2741C0 21.6871 1.1057 19.3584 2.87031 17.7347C4.4526 16.2787 6.56468 15.3897 8.8844 15.3897C13.7911 15.3897 17.7688 19.3674 17.7688 24.2741Z" fill="#197BBD"/>
<path d="M43.4098 24.2741C43.4098 29.1808 39.4321 33.1585 34.5254 33.1585C29.6187 33.1585 25.641 29.1808 25.641 24.2741C25.641 23.6473 25.7059 23.0357 25.8294 22.4456C26.6724 18.4161 30.2455 15.3897 34.5254 15.3897C39.4321 15.3897 43.4098 19.3674 43.4098 24.2741Z" fill="#197BBD"/>
<path d="M33.4324 13.653C33.4324 18.1245 30.1289 21.8245 25.8294 22.4456C25.411 22.5061 24.9831 22.5374 24.548 22.5374C20.2356 22.5374 16.6408 19.465 15.8332 15.3897C15.7219 14.828 15.6636 14.2473 15.6636 13.653C15.6636 12.8724 15.7642 12.1153 15.9533 11.394C16.9527 7.58132 20.4218 4.76855 24.548 4.76855C29.4547 4.76855 33.4324 8.74624 33.4324 13.653Z" fill="#197BBD"/>
<path d="M17.7688 24.2741C17.7688 29.1808 13.7911 33.1585 8.8844 33.1585H34.5254C29.6187 33.1585 25.641 29.1808 25.641 24.2741C25.641 23.6473 25.7059 23.0357 25.8294 22.4456C25.411 22.5061 24.9831 22.5374 24.548 22.5374C20.2356 22.5374 16.6408 19.465 15.8332 15.3897H10.0379H8.8844C13.7911 15.3897 17.7688 19.3674 17.7688 24.2741Z" fill="#197BBD"/>
<path d="M15.8332 15.3897C15.7219 14.828 15.6636 14.2473 15.6636 13.653C15.6636 12.8724 15.7642 12.1153 15.9533 11.394C15.2109 12.7259 12.9884 15.3897 10.0379 15.3897H15.8332Z" fill="#197BBD"/>
<circle cx="34.6672" cy="10.9484" r="8.01481" transform="rotate(-30 34.6672 10.9484)" fill="#FFC145"/>
</svg>
