<svg width="25" height="24" viewBox="0 0 25 24" fill="none" xmlns="http://www.w3.org/2000/svg">
<path fill-rule="evenodd" clip-rule="evenodd" d="M16.4916 8.23285C16.4916 10.5825 14.6184 12.4666 12.2823 12.4666C9.94618 12.4666 8.07299 10.5825 8.07299 8.23285C8.07299 5.88227 9.94618 4 12.2823 4C14.6184 4 16.4916 5.88227 16.4916 8.23285ZM12.2823 20C8.8511 20 5.92134 19.456 5.92134 17.2802C5.92134 15.1034 8.83229 14.5396 12.2823 14.5396C15.7135 14.5396 18.6432 15.0836 18.6432 17.2604C18.6432 19.4362 15.7323 20 12.2823 20ZM18.2903 8.30922C18.2903 9.50703 17.9331 10.6229 17.3063 11.5505C17.2418 11.646 17.2991 11.7748 17.4128 11.7946C17.5695 11.8216 17.7316 11.8369 17.8964 11.8414C19.5394 11.8846 21.0142 10.821 21.4216 9.21974C22.0251 6.84123 20.2531 4.7059 17.9967 4.7059C17.7513 4.7059 17.5167 4.73201 17.2884 4.77884C17.257 4.78605 17.2239 4.80046 17.206 4.82838C17.1845 4.8626 17.2006 4.90853 17.2221 4.93825C17.8999 5.8938 18.2903 7.05918 18.2903 8.30922ZM21.0115 13.5126C22.1155 13.7296 22.8417 14.1727 23.1425 14.8166C23.3968 15.3453 23.3968 15.9586 23.1425 16.4864C22.6823 17.4851 21.1986 17.8058 20.622 17.8886C20.5029 17.9066 20.4071 17.8031 20.4196 17.6833C20.7142 14.9157 18.3709 13.6035 17.7647 13.3018C17.7388 13.2883 17.7334 13.2676 17.7361 13.255C17.7379 13.246 17.7486 13.2316 17.7683 13.2289C19.0801 13.2046 20.4903 13.3847 21.0115 13.5126ZM6.77036 11.8413C6.93512 11.8368 7.09629 11.8224 7.25388 11.7945C7.36759 11.7747 7.4249 11.6459 7.36043 11.5504C6.73365 10.6228 6.37638 9.50694 6.37638 8.30913C6.37638 7.05909 6.76678 5.89371 7.4446 4.93816C7.46609 4.90844 7.48131 4.86251 7.46072 4.82829C7.44281 4.80127 7.40878 4.78596 7.37834 4.77875C7.14912 4.73192 6.91452 4.70581 6.66918 4.70581C4.41277 4.70581 2.64076 6.84114 3.24516 9.21965C3.65257 10.8209 5.1273 11.8845 6.77036 11.8413ZM6.93019 13.2545C6.93288 13.268 6.9275 13.2878 6.90243 13.3022C6.29535 13.6039 3.95208 14.9161 4.24667 17.6827C4.2592 17.8034 4.16429 17.9061 4.0452 17.889C3.46856 17.8061 1.98488 17.4855 1.52464 16.4867C1.26945 15.9581 1.26945 15.3457 1.52464 14.817C1.8255 14.1731 2.55078 13.73 3.65481 13.512C4.17683 13.385 5.58619 13.2049 6.89885 13.2292C6.91855 13.2319 6.9284 13.2464 6.93019 13.2545Z" fill="#C4C4C4"/>
</svg>
