<svg width="40" height="40" viewBox="0 0 40 40" fill="none" xmlns="http://www.w3.org/2000/svg">
<rect width="40" height="40" rx="8" fill="#FBC40F" fill-opacity="0.08"/>
<path fill-rule="evenodd" clip-rule="evenodd" d="M24.4916 16.2329C24.4916 18.5825 22.6184 20.4666 20.2823 20.4666C17.9462 20.4666 16.073 18.5825 16.073 16.2329C16.073 13.8823 17.9462 12 20.2823 12C22.6184 12 24.4916 13.8823 24.4916 16.2329ZM20.2823 28C16.8511 28 13.9213 27.456 13.9213 25.2802C13.9213 23.1034 16.8323 22.5396 20.2823 22.5396C23.7135 22.5396 26.6432 23.0836 26.6432 25.2604C26.6432 27.4362 23.7323 28 20.2823 28ZM26.2903 16.3092C26.2903 17.507 25.9331 18.6229 25.3063 19.5505C25.2418 19.646 25.2991 19.7748 25.4128 19.7946C25.5695 19.8216 25.7316 19.8369 25.8964 19.8414C27.5394 19.8846 29.0142 18.821 29.4216 17.2197C30.0251 14.8412 28.2531 12.7059 25.9967 12.7059C25.7513 12.7059 25.5167 12.732 25.2884 12.7788C25.257 12.786 25.2239 12.8005 25.206 12.8284C25.1845 12.8626 25.2006 12.9085 25.2221 12.9383C25.8999 13.8938 26.2903 15.0592 26.2903 16.3092ZM29.0115 21.5126C30.1155 21.7296 30.8417 22.1727 31.1425 22.8166C31.3968 23.3453 31.3968 23.9586 31.1425 24.4864C30.6823 25.4851 29.1986 25.8058 28.622 25.8886C28.5029 25.9066 28.4071 25.8031 28.4196 25.6833C28.7142 22.9157 26.3709 21.6035 25.7647 21.3018C25.7388 21.2883 25.7334 21.2676 25.7361 21.255C25.7379 21.246 25.7486 21.2316 25.7683 21.2289C27.0801 21.2046 28.4903 21.3847 29.0115 21.5126ZM14.7704 19.8413C14.9351 19.8368 15.0963 19.8224 15.2539 19.7945C15.3676 19.7747 15.4249 19.6459 15.3604 19.5504C14.7336 18.6228 14.3764 17.5069 14.3764 16.3091C14.3764 15.0591 14.7668 13.8937 15.4446 12.9382C15.4661 12.9084 15.4813 12.8625 15.4607 12.8283C15.4428 12.8013 15.4088 12.786 15.3783 12.7788C15.1491 12.7319 14.9145 12.7058 14.6692 12.7058C12.4128 12.7058 10.6408 14.8411 11.2452 17.2196C11.6526 18.8209 13.1273 19.8845 14.7704 19.8413ZM14.9302 21.2545C14.9329 21.268 14.9275 21.2878 14.9024 21.3022C14.2954 21.6039 11.9521 22.9161 12.2467 25.6827C12.2592 25.8034 12.1643 25.9061 12.0452 25.889C11.4686 25.8061 9.98488 25.4855 9.52464 24.4867C9.26945 23.9581 9.26945 23.3457 9.52464 22.817C9.8255 22.1731 10.5508 21.73 11.6548 21.512C12.1768 21.385 13.5862 21.2049 14.8989 21.2292C14.9186 21.2319 14.9284 21.2464 14.9302 21.2545Z" fill="#F79320"/>
</svg>
