<svg width="374" height="206" viewBox="0 0 374 206" fill="none" xmlns="http://www.w3.org/2000/svg">
<rect y="0.5" width="374" height="205.019" rx="26" fill="url(#paint0_linear)"/>
<mask id="mask0" mask-type="alpha" maskUnits="userSpaceOnUse" x="0" y="1" width="374" height="205">
<rect y="1" width="374" height="205" rx="26" fill="url(#paint1_linear)"/>
</mask>
<g mask="url(#mask0)">
<path d="M257.251 222.857C257.251 258.461 229.045 287.323 194.25 287.323C159.456 287.323 131.249 258.461 131.249 222.857C131.249 204.086 139.09 187.188 151.603 175.407C162.823 164.842 177.8 158.391 194.25 158.391C229.045 158.391 257.251 187.254 257.251 222.857Z" fill="#F7F6FF" fill-opacity="0.12"/>
<path d="M257.251 222.857C257.251 258.461 229.045 287.323 194.25 287.323H376.076C341.281 287.323 313.075 258.461 313.075 222.857C313.075 218.309 313.535 213.871 314.41 209.59C311.443 210.028 308.409 210.255 305.324 210.255C274.744 210.255 249.253 187.962 243.526 158.391H202.43H194.25C229.045 158.391 257.251 187.254 257.251 222.857Z" fill="#F7F6FF" fill-opacity="0.12"/>
<path d="M243.526 158.391C242.736 154.316 242.323 150.102 242.323 145.789C242.323 140.125 243.036 134.632 244.377 129.398C239.112 139.062 223.353 158.391 202.43 158.391H243.526Z" fill="#F7F6FF" fill-opacity="0.12"/>
<path fill-rule="evenodd" clip-rule="evenodd" d="M376.076 287.323C410.87 287.323 439.077 258.461 439.077 222.857C439.077 187.254 410.87 158.391 376.076 158.391C372.99 158.391 369.956 158.618 366.989 159.057C361.619 185.323 340.626 205.715 314.41 209.59C313.535 213.871 313.075 218.309 313.075 222.857C313.075 258.461 341.281 287.323 376.076 287.323Z" fill="#F7F6FF" fill-opacity="0.12"/>
<path d="M366.989 159.057C361.619 185.323 340.626 205.715 314.41 209.59C319.78 183.324 340.774 162.932 366.989 159.057Z" fill="#F7F6FF" fill-opacity="0.12"/>
<path d="M368.325 145.789C368.325 110.186 340.118 81.3234 305.324 81.3234C276.064 81.3234 251.464 101.733 244.377 129.398C243.036 134.632 242.323 140.125 242.323 145.789C242.323 150.102 242.736 154.316 243.526 158.391C249.253 187.962 274.744 210.255 305.324 210.255C308.409 210.255 311.443 210.028 314.41 209.59C319.78 183.324 340.774 162.932 366.989 159.057C367.864 154.775 368.325 150.337 368.325 145.789Z" fill="#F7F6FF" fill-opacity="0.12"/>
</g>
<defs>
<linearGradient id="paint0_linear" x1="187" y1="0.5" x2="187" y2="205.519" gradientUnits="userSpaceOnUse">
<stop stop-color="#4E83E3"/>
<stop offset="1" stop-color="#4376D2"/>
</linearGradient>
<linearGradient id="paint1_linear" x1="187" y1="1" x2="187" y2="206" gradientUnits="userSpaceOnUse">
<stop stop-color="#197BBD"/>
<stop offset="1" stop-color="#3391D0"/>
</linearGradient>
</defs>
</svg>
