<svg width="40" height="40" viewBox="0 0 40 40" fill="none" xmlns="http://www.w3.org/2000/svg">
<rect width="40" height="40" rx="8" fill="#27AE60" fill-opacity="0.08"/>
<path fill-rule="evenodd" clip-rule="evenodd" d="M14.9972 10.0004H24.3362C27.7372 10.0004 29.6572 11.9294 29.6672 15.3304V24.6704C29.6672 28.0704 27.7372 30.0004 24.3362 30.0004H14.9972C11.5962 30.0004 9.66724 28.0704 9.66724 24.6704V15.3304C9.66724 11.9294 11.5962 10.0004 14.9972 10.0004ZM19.7162 25.8604C20.1472 25.8604 20.5062 25.5404 20.5462 25.1104V14.9204C20.5862 14.6104 20.4372 14.2994 20.1672 14.1304C19.8862 13.9604 19.5462 13.9604 19.2772 14.1304C19.0062 14.2994 18.8572 14.6104 18.8862 14.9204V25.1104C18.9372 25.5404 19.2962 25.8604 19.7162 25.8604ZM24.3172 25.8604C24.7372 25.8604 25.0962 25.5404 25.1472 25.1104V21.8304C25.1762 21.5094 25.0272 21.2104 24.7562 21.0404C24.4872 20.8704 24.1472 20.8704 23.8672 21.0404C23.5962 21.2104 23.4472 21.5094 23.4872 21.8304V25.1104C23.5272 25.5404 23.8862 25.8604 24.3172 25.8604ZM15.8862 25.1104C15.8462 25.5404 15.4872 25.8604 15.0562 25.8604C14.6262 25.8604 14.2662 25.5404 14.2272 25.1104V18.2004C14.1972 17.8894 14.3462 17.5804 14.6172 17.4104C14.8862 17.2404 15.2272 17.2404 15.4972 17.4104C15.7662 17.5804 15.9172 17.8894 15.8862 18.2004V25.1104Z" fill="#27AE60"/>
</svg>
